<svg width="383" height="292" viewBox="0 0 383 292" fill="none" xmlns="http://www.w3.org/2000/svg">
<g clip-path="url(#clip0_65_679)">
<path d="M358.576 275.136H239.166L230.893 180.687H350.304L358.576 275.136Z" fill="#D7E4F2"/>
<path d="M300.668 164.413C346.139 164.413 383 127.608 383 82.2064C383 36.8051 346.139 0 300.668 0C255.198 0 218.336 36.8051 218.336 82.2064C218.336 127.608 255.198 164.413 300.668 164.413Z" fill="#D7E4F2"/>
<path d="M358.576 283.003H242.219C241.972 283.003 241.775 282.806 241.775 282.511C241.775 282.216 241.972 282.019 242.219 282.019H358.576C358.822 282.019 359.069 282.216 359.069 282.511C359.069 282.806 358.872 283.003 358.576 283.003Z" fill="#89B9E6"/>
<path d="M359.758 291.361H243.4C243.154 291.361 242.957 291.164 242.957 290.869C242.957 290.574 243.154 290.378 243.4 290.378H359.758C360.004 290.378 360.25 290.574 360.25 290.869C360.25 291.164 360.053 291.361 359.758 291.361Z" fill="#89B9E6"/>
<path d="M350.747 269.777H246.01C246.01 269.777 245.567 269.58 245.567 269.334L238.329 186.538C238.329 186.538 238.329 186.292 238.427 186.194C238.526 186.095 238.624 186.046 238.772 186.046H343.508C343.508 186.046 343.952 186.243 343.952 186.489L351.19 269.285C351.19 269.285 351.19 269.531 351.092 269.629C350.993 269.728 350.895 269.777 350.747 269.777ZM246.453 268.843H350.205L343.016 186.98H239.264L246.453 268.843Z" fill="#89B9E6"/>
<path d="M220.06 147.45H219.961C219.715 147.45 219.469 147.254 219.469 146.959C219.469 146.664 219.666 146.516 219.961 146.516H220.06C221.882 146.516 223.753 146.418 225.575 146.27C225.821 146.27 226.067 146.418 226.067 146.713C226.067 147.008 225.92 147.205 225.624 147.205C223.802 147.352 221.882 147.45 220.06 147.45ZM214.299 147.205C212.428 147.057 210.507 146.811 208.636 146.467C208.39 146.467 208.193 146.172 208.242 145.926C208.242 145.68 208.537 145.484 208.784 145.533C210.606 145.877 212.477 146.123 214.348 146.27C214.594 146.27 214.791 146.516 214.791 146.762C214.791 147.008 214.545 147.205 214.348 147.205H214.299ZM231.189 146.516C231.189 146.516 230.745 146.369 230.745 146.123C230.745 145.877 230.893 145.631 231.139 145.582C232.961 145.287 234.832 144.845 236.605 144.402C236.851 144.353 237.097 144.5 237.196 144.746C237.245 144.992 237.097 145.238 236.851 145.336C235.029 145.828 233.158 146.221 231.287 146.565C231.287 146.565 231.238 146.565 231.189 146.565V146.516ZM203.17 145.238H203.072C201.25 144.746 199.428 144.156 197.655 143.517C197.409 143.419 197.31 143.173 197.36 142.927C197.409 142.681 197.704 142.583 197.951 142.632C199.723 143.271 201.496 143.861 203.318 144.304C203.564 144.353 203.712 144.648 203.663 144.894C203.613 145.09 203.416 145.238 203.219 145.238H203.17ZM242.12 143.615C242.12 143.615 241.726 143.517 241.677 143.32C241.578 143.075 241.677 142.829 241.972 142.73C243.745 142.091 245.469 141.354 247.192 140.567C247.438 140.469 247.684 140.567 247.832 140.813C247.931 141.059 247.832 141.305 247.586 141.452C245.862 142.239 244.09 142.976 242.317 143.615C242.268 143.615 242.219 143.615 242.169 143.615H242.12ZM192.534 141.354C192.534 141.354 192.386 141.354 192.337 141.354C190.614 140.567 188.939 139.682 187.265 138.699C187.019 138.551 186.97 138.306 187.117 138.06C187.265 137.814 187.511 137.765 187.758 137.912C189.383 138.846 191.057 139.731 192.731 140.518C192.977 140.616 193.076 140.911 192.977 141.157C192.879 141.305 192.731 141.403 192.534 141.403V141.354ZM252.412 138.846C252.412 138.846 252.116 138.748 252.018 138.601C251.87 138.355 251.968 138.109 252.165 137.961C253.79 137.027 255.366 136.044 256.893 134.962C257.09 134.815 257.385 134.864 257.533 135.061C257.68 135.257 257.631 135.552 257.434 135.7C255.858 136.781 254.283 137.814 252.609 138.748C252.559 138.748 252.461 138.797 252.362 138.797L252.412 138.846ZM182.784 135.7C182.784 135.7 182.587 135.7 182.538 135.601C181.011 134.52 179.485 133.34 178.008 132.111C177.811 131.963 177.762 131.668 177.959 131.471C178.106 131.275 178.402 131.226 178.599 131.422C180.027 132.602 181.504 133.782 183.03 134.864C183.227 135.011 183.277 135.306 183.129 135.503C183.03 135.651 182.883 135.7 182.735 135.7H182.784ZM261.669 132.406C261.669 132.406 261.423 132.356 261.324 132.258C261.177 132.061 261.177 131.766 261.374 131.619C262.802 130.439 264.18 129.161 265.51 127.833C265.707 127.636 266.002 127.636 266.15 127.833C266.347 128.03 266.347 128.325 266.15 128.472C264.82 129.8 263.392 131.078 261.964 132.307C261.866 132.356 261.767 132.406 261.669 132.406ZM174.118 128.423C174.118 128.423 173.871 128.423 173.773 128.276C172.443 126.948 171.163 125.522 169.932 124.096C169.784 123.9 169.784 123.605 169.981 123.457C170.178 123.31 170.474 123.31 170.622 123.506C171.803 124.932 173.084 126.309 174.413 127.636C174.61 127.833 174.61 128.128 174.413 128.276C174.315 128.374 174.216 128.423 174.068 128.423H174.118ZM269.695 124.441C269.695 124.441 269.498 124.441 269.4 124.342C269.203 124.195 269.154 123.9 269.351 123.703C270.532 122.277 271.714 120.802 272.798 119.278C272.945 119.081 273.241 119.032 273.438 119.18C273.635 119.327 273.684 119.622 273.536 119.819C272.453 121.343 271.271 122.867 270.04 124.342C269.942 124.441 269.794 124.49 269.695 124.49V124.441ZM166.83 119.77C166.83 119.77 166.534 119.721 166.436 119.573C165.353 118 164.319 116.426 163.383 114.755C163.235 114.509 163.334 114.263 163.531 114.116C163.777 113.968 164.023 114.066 164.171 114.263C165.106 115.886 166.141 117.459 167.175 118.983C167.322 119.18 167.273 119.475 167.076 119.622C166.978 119.671 166.879 119.721 166.83 119.721V119.77ZM276.195 115.197C276.195 115.197 276.047 115.197 275.949 115.148C275.703 115.001 275.654 114.755 275.801 114.509C276.737 112.886 277.623 111.215 278.411 109.543C278.51 109.297 278.805 109.199 279.051 109.297C279.297 109.396 279.396 109.691 279.297 109.936C278.51 111.657 277.623 113.329 276.638 114.951C276.54 115.099 276.392 115.197 276.244 115.197H276.195ZM161.216 109.986C161.216 109.986 160.872 109.887 160.773 109.691C159.985 107.97 159.247 106.2 158.607 104.43C158.508 104.184 158.607 103.938 158.902 103.84C159.148 103.741 159.394 103.84 159.493 104.135C160.133 105.905 160.872 107.626 161.66 109.297C161.758 109.543 161.66 109.789 161.413 109.936C161.364 109.936 161.266 109.936 161.216 109.936V109.986ZM280.972 104.971C280.972 104.971 280.873 104.971 280.824 104.971C280.578 104.872 280.479 104.626 280.528 104.381C281.169 102.611 281.759 100.841 282.252 99.0215C282.301 98.7756 282.597 98.6281 282.843 98.6773C283.089 98.7265 283.237 99.0215 283.187 99.2673C282.695 101.086 282.104 102.906 281.464 104.676C281.415 104.872 281.218 104.971 281.021 104.971H280.972ZM157.326 99.3656C157.326 99.3656 156.932 99.2181 156.883 99.0215C156.391 97.2023 155.997 95.334 155.652 93.4656C155.652 93.2198 155.8 92.974 156.046 92.9248C156.292 92.9248 156.538 93.0723 156.588 93.3181C156.883 95.1373 157.326 97.0056 157.77 98.7756C157.819 99.0215 157.671 99.2673 157.425 99.3656H157.326ZM283.926 94.0556C283.926 94.0556 283.877 94.0556 283.828 94.0556C283.581 94.0556 283.384 93.7606 283.434 93.5148C283.778 91.6956 284.025 89.8273 284.172 87.959C284.172 87.7132 284.419 87.5165 284.665 87.5165C284.911 87.5165 285.108 87.7623 285.108 88.0082C284.96 89.8765 284.665 91.794 284.369 93.6623C284.369 93.9081 284.123 94.0556 283.926 94.0556ZM155.406 88.254C155.406 88.254 154.963 88.0573 154.963 87.8115C154.815 85.9432 154.717 84.0748 154.717 82.2065V82.1082C154.717 81.8623 154.914 81.6165 155.16 81.6165C155.406 81.6165 155.652 81.8132 155.652 82.1082C155.652 84.0257 155.751 85.894 155.898 87.7132C155.898 87.959 155.751 88.2048 155.455 88.2048L155.406 88.254ZM284.96 82.8457C284.714 82.8457 284.517 82.649 284.517 82.354V82.2065C284.517 80.3382 284.419 78.4698 284.271 76.6015C284.271 76.3557 284.419 76.1099 284.714 76.1099C284.96 76.1099 285.206 76.2574 285.206 76.5524C285.354 78.4207 285.453 80.3382 285.453 82.2557V82.4032C285.453 82.649 285.256 82.8948 284.96 82.8948V82.8457ZM155.406 76.9457C155.16 76.9457 154.963 76.6999 154.963 76.454C155.11 74.5857 155.357 72.6682 155.701 70.7999C155.701 70.554 155.997 70.3574 156.243 70.4065C156.489 70.4065 156.686 70.7015 156.637 70.9474C156.292 72.7665 156.046 74.6349 155.898 76.5032C155.898 76.749 155.652 76.9457 155.455 76.9457H155.406ZM283.975 71.439C283.975 71.439 283.532 71.2915 283.532 71.0457C283.188 69.2265 282.794 67.3582 282.301 65.5882C282.252 65.3424 282.4 65.0966 282.646 64.9982C282.892 64.9491 283.138 65.0966 283.237 65.3424C283.729 67.1615 284.123 69.0299 284.468 70.8982C284.468 71.144 284.32 71.3899 284.074 71.439C284.074 71.439 284.025 71.439 283.975 71.439ZM157.376 65.8341H157.277C157.031 65.7849 156.883 65.4899 156.932 65.2441C157.425 63.4249 158.016 61.6057 158.656 59.8357C158.754 59.5899 159.001 59.4916 159.247 59.5407C159.493 59.6391 159.591 59.8849 159.542 60.1307C158.902 61.9007 158.311 63.6707 157.868 65.4899C157.819 65.6866 157.622 65.8341 157.425 65.8341H157.376ZM281.07 60.5241C281.07 60.5241 280.676 60.4257 280.627 60.2291C279.987 58.4591 279.248 56.7382 278.46 55.0666C278.362 54.8208 278.46 54.5749 278.707 54.4274C278.953 54.3291 279.199 54.4274 279.347 54.6733C280.135 56.3941 280.873 58.1641 281.513 59.9341C281.612 60.1799 281.513 60.4257 281.218 60.5241C281.169 60.5241 281.119 60.5241 281.07 60.5241ZM161.266 55.2632C161.266 55.2632 161.118 55.2632 161.069 55.2632C160.822 55.1649 160.724 54.8699 160.822 54.6241C161.61 52.9033 162.497 51.2316 163.482 49.5599C163.629 49.3141 163.875 49.2649 164.122 49.4124C164.368 49.5599 164.417 49.8058 164.269 50.0516C163.334 51.6741 162.447 53.3458 161.66 55.0174C161.561 55.1649 161.413 55.2632 161.216 55.2632H161.266ZM276.244 50.2974C276.244 50.2974 275.949 50.1991 275.851 50.0516C274.915 48.4291 273.881 46.8558 272.847 45.3316C272.699 45.1349 272.748 44.8399 272.945 44.6924C273.142 44.5449 273.438 44.5941 273.585 44.7908C274.669 46.3641 275.703 47.9374 276.638 49.6091C276.786 49.8549 276.688 50.1008 276.491 50.2483C276.392 50.2483 276.343 50.2974 276.244 50.2974ZM166.928 45.4791C166.928 45.4791 166.731 45.4791 166.682 45.3808C166.485 45.2333 166.436 44.9383 166.584 44.7416C167.667 43.2175 168.849 41.6933 170.08 40.2183C170.228 40.0216 170.523 39.9725 170.72 40.1691C170.917 40.3658 170.966 40.6116 170.769 40.8083C169.587 42.2341 168.406 43.7091 167.322 45.2333C167.224 45.3808 167.076 45.4299 166.928 45.4299V45.4791ZM269.794 41.0541C269.794 41.0541 269.548 41.005 269.449 40.9066C268.267 39.4808 266.987 38.1041 265.658 36.7766C265.461 36.58 265.461 36.285 265.658 36.1375C265.854 35.9408 266.15 35.9408 266.298 36.1375C267.627 37.465 268.957 38.8908 270.139 40.3166C270.286 40.5133 270.286 40.8083 270.089 40.9558C269.991 41.005 269.892 41.0541 269.794 41.0541ZM174.216 36.8258C174.216 36.8258 173.97 36.8258 173.871 36.6783C173.675 36.4816 173.675 36.1866 173.871 36.0391C175.201 34.7116 176.629 33.4333 178.057 32.2041C178.254 32.0566 178.549 32.0566 178.697 32.2533C178.845 32.45 178.845 32.745 178.648 32.8925C177.22 34.0725 175.841 35.3508 174.512 36.6783C174.413 36.7766 174.315 36.8258 174.167 36.8258H174.216ZM261.767 33.04C261.767 33.04 261.57 33.04 261.472 32.9416C260.044 31.7616 258.567 30.5817 257.04 29.5C256.843 29.3525 256.794 29.0575 256.942 28.8608C257.09 28.6642 257.385 28.615 257.582 28.7625C259.108 29.8442 260.635 31.0242 262.112 32.2533C262.309 32.4008 262.358 32.6958 262.161 32.8925C262.063 32.9908 261.915 33.04 261.817 33.04H261.767ZM182.883 29.5983C182.883 29.5983 182.587 29.5492 182.489 29.4017C182.341 29.205 182.39 28.91 182.587 28.7625C184.163 27.6808 185.739 26.6483 187.413 25.7142C187.659 25.5667 187.905 25.665 188.053 25.8617C188.201 26.1075 188.102 26.3533 187.905 26.5008C186.28 27.435 184.705 28.4675 183.178 29.5C183.08 29.5492 182.981 29.5983 182.932 29.5983H182.883ZM252.51 26.5992C252.51 26.5992 252.362 26.5992 252.264 26.55C250.639 25.6158 248.965 24.7308 247.29 23.9442C247.044 23.8458 246.946 23.5508 247.044 23.305C247.143 23.0592 247.438 22.9608 247.684 23.0592C249.408 23.8458 251.082 24.7308 252.756 25.7142C253.002 25.8617 253.052 26.1075 252.904 26.3533C252.806 26.5008 252.658 26.5992 252.51 26.5992ZM192.682 23.9442C192.682 23.9442 192.337 23.8458 192.239 23.6983C192.14 23.4525 192.239 23.2067 192.485 23.0592C194.208 22.2725 195.981 21.535 197.754 20.8958C198 20.7975 198.246 20.8958 198.344 21.1908C198.443 21.4367 198.344 21.6825 198.049 21.7808C196.276 22.42 194.553 23.1575 192.879 23.9442C192.829 23.9442 192.731 23.9442 192.682 23.9442ZM242.268 21.7808C242.268 21.7808 242.169 21.7808 242.12 21.7808C240.347 21.1417 238.575 20.5517 236.753 20.1092C236.507 20.06 236.359 19.765 236.408 19.5192C236.457 19.2734 236.753 19.1259 236.999 19.175C238.821 19.6667 240.643 20.2567 242.416 20.8958C242.662 20.9942 242.76 21.24 242.711 21.4858C242.662 21.6825 242.465 21.7808 242.268 21.7808ZM203.318 20.06C203.318 20.06 202.924 19.9125 202.875 19.7159C202.825 19.47 202.973 19.2242 203.219 19.1259C205.041 18.6342 206.912 18.2409 208.784 17.8967C209.03 17.8967 209.276 18.0442 209.325 18.29C209.325 18.5359 209.178 18.7817 208.931 18.8309C207.109 19.175 205.238 19.5683 203.466 20.06H203.367H203.318ZM231.336 18.88C231.336 18.88 231.287 18.88 231.238 18.88C229.416 18.5359 227.545 18.29 225.673 18.1425C225.427 18.1425 225.23 17.8967 225.23 17.6509C225.23 17.405 225.477 17.2084 225.723 17.2084C227.594 17.3559 229.514 17.6017 231.385 17.9459C231.632 17.9459 231.829 18.2409 231.779 18.4867C231.779 18.7325 231.533 18.88 231.336 18.88ZM214.446 18.1425C214.446 18.1425 214.003 17.9459 214.003 17.7C214.003 17.4542 214.151 17.2084 214.446 17.2084C216.318 17.0609 218.238 16.9625 220.109 16.9625C220.355 16.9625 220.602 17.1592 220.602 17.405C220.602 17.6509 220.405 17.8967 220.158 17.8967C218.287 17.8967 216.416 17.995 214.594 18.1425H214.446Z" fill="#89B9E6"/>
<path d="M304.607 20.06C304.361 20.06 304.164 19.8633 304.164 19.5683V12.6358C304.164 12.39 304.361 12.1442 304.607 12.1442C304.854 12.1442 305.1 12.3408 305.1 12.6358V19.5683C305.1 19.8141 304.903 20.06 304.607 20.06Z" fill="black"/>
<path d="M304.607 32.8433C304.361 32.8433 304.164 32.6466 304.164 32.3516V25.4192C304.164 25.1733 304.361 24.9275 304.607 24.9275C304.854 24.9275 305.1 25.1242 305.1 25.4192V32.3516C305.1 32.5975 304.903 32.8433 304.607 32.8433Z" fill="black"/>
<path d="M314.505 22.9607H307.562C307.316 22.9607 307.07 22.7641 307.07 22.4691C307.07 22.1741 307.267 21.9774 307.562 21.9774H314.505C314.751 21.9774 314.997 22.1741 314.997 22.4691C314.997 22.7641 314.8 22.9607 314.505 22.9607Z" fill="black"/>
<path d="M301.702 22.9607H294.759C294.513 22.9607 294.267 22.7641 294.267 22.4691C294.267 22.1741 294.464 21.9774 294.759 21.9774H301.702C301.949 21.9774 302.195 22.1741 302.195 22.4691C302.195 22.7641 301.998 22.9607 301.702 22.9607Z" fill="black"/>
<path d="M365.372 82.354C368.309 82.354 370.69 79.9766 370.69 77.044C370.69 74.1114 368.309 71.734 365.372 71.734C362.434 71.734 360.053 74.1114 360.053 77.044C360.053 79.9766 362.434 82.354 365.372 82.354Z" fill="#89B9E6"/>
<path d="M356.016 58.9999C358.953 58.9999 361.334 56.6225 361.334 53.6899C361.334 50.7572 358.953 48.3799 356.016 48.3799C353.079 48.3799 350.698 50.7572 350.698 53.6899C350.698 56.6225 353.079 58.9999 356.016 58.9999Z" fill="white"/>
<path d="M362.909 136.437C362.909 136.437 362.712 136.437 362.663 136.339C362.466 136.191 362.368 135.896 362.515 135.7L373.644 119.229C373.644 119.229 374.087 118.983 374.284 119.081C374.481 119.229 374.53 119.524 374.432 119.72L363.303 136.191C363.303 136.191 363.057 136.388 362.909 136.388V136.437Z" fill="black"/>
<path d="M324.501 291.361H12.7042C6.00738 291.361 0.59082 285.953 0.59082 279.266H336.565C336.565 285.953 331.149 291.361 324.452 291.361H324.501Z" fill="#8ABAE7"/>
<path d="M324.501 292H12.7043C5.71201 292 0 286.297 0 279.315C0 278.971 0.295449 278.725 0.590897 278.725H336.565C336.91 278.725 337.156 279.02 337.156 279.315C337.156 286.297 331.444 292 324.452 292H324.501ZM1.23104 279.905C1.52649 285.953 6.54911 290.771 12.7043 290.771H324.501C330.607 290.771 335.63 285.953 335.974 279.905H1.23104Z" fill="black"/>
<path d="M49.783 48.3307H287.422C292.543 48.3307 296.68 52.4607 296.68 57.574V221.2C296.68 226.314 292.543 230.444 287.422 230.444H49.783C44.6619 230.444 40.5256 226.314 40.5256 221.2V57.574C40.5256 52.4607 44.6619 48.3307 49.783 48.3307Z" fill="#8ABAE7"/>
<path d="M286.881 230.984H50.3247C44.5634 230.984 39.8855 226.314 39.8855 220.561V58.1148C39.8855 52.3623 44.5634 47.6915 50.3247 47.6915H286.831C292.593 47.6915 297.271 52.3623 297.271 58.1148V220.561C297.271 226.314 292.593 230.984 286.831 230.984H286.881ZM50.3247 48.9207C45.2528 48.9207 41.1165 53.0507 41.1165 58.1148V220.561C41.1165 225.625 45.2528 229.755 50.3247 229.755H286.831C291.903 229.755 296.039 225.625 296.039 220.561V58.1148C296.039 53.0507 291.903 48.9207 286.831 48.9207H50.3247Z" fill="black"/>
<path d="M332.33 282.412H4.87473C0.54148 282.412 -0.689556 279.659 2.11721 276.316L37.5218 233.983C39.196 231.968 43.1353 230.394 46.3853 230.394H290.82C294.07 230.394 298.009 231.968 299.683 233.983L335.088 276.316C337.845 279.659 336.664 282.412 332.33 282.412Z" fill="#D8E5F3"/>
<path d="M332.33 283.003H4.87481C2.56046 283.003 0.935495 282.265 0.295357 280.888C-0.344782 279.512 0.147632 277.742 1.67412 275.923L37.0787 233.59C38.8514 231.476 42.9385 229.804 46.4346 229.804H290.869C294.316 229.804 298.403 231.476 300.225 233.59L335.63 275.923C337.156 277.742 337.649 279.512 337.008 280.888C336.368 282.265 334.743 283.003 332.429 283.003H332.33ZM46.3854 230.984C43.2831 230.984 39.5408 232.508 38.0143 234.328L2.56046 276.709C1.37867 278.135 0.935496 279.462 1.37867 280.397C1.82184 281.282 3.05288 281.822 4.87481 281.822H332.33C334.103 281.822 335.383 281.331 335.827 280.397C336.27 279.462 335.827 278.135 334.645 276.709L299.24 234.377C297.714 232.508 293.922 231.033 290.869 231.033H46.3854V230.984Z" fill="black"/>
<path d="M288.9 56.689H48.2566V222.036H288.9V56.689Z" fill="white"/>
<path d="M288.9 222.626H48.2567C47.912 222.626 47.6658 222.331 47.6658 222.036V56.689C47.6658 56.3448 47.9612 56.099 48.2567 56.099H288.9C289.244 56.099 289.491 56.394 289.491 56.689V222.036C289.491 222.38 289.195 222.626 288.9 222.626ZM48.8968 221.397H288.309V57.279H48.8968V221.397Z" fill="black"/>
<path d="M305.396 256.403H31.8101L48.2567 235.508H288.9L305.396 256.403Z" fill="#8ABAE7"/>
<path d="M270.927 241.801H56.4801C56.1354 241.801 55.8892 241.506 55.8892 241.211C55.8892 240.916 56.1846 240.621 56.4801 240.621H270.927C271.271 240.621 271.517 240.916 271.517 241.211C271.517 241.506 271.222 241.801 270.927 241.801Z" fill="black"/>
<path d="M279.445 249.618H49.5863C49.2416 249.618 48.9954 249.323 48.9954 249.028C48.9954 248.733 49.2908 248.438 49.5863 248.438H279.396C279.741 248.438 279.987 248.733 279.987 249.028C279.987 249.323 279.692 249.618 279.396 249.618H279.445Z" fill="black"/>
<path d="M214.496 276.66H122.71C122.71 276.66 122.316 276.562 122.217 276.414C122.119 276.267 122.069 276.07 122.119 275.873L126.895 259.501C126.994 259.255 127.191 259.058 127.486 259.058H209.719C210.015 259.058 210.212 259.255 210.31 259.501L215.087 275.873C215.087 275.873 215.087 276.267 214.988 276.414C214.89 276.562 214.693 276.66 214.496 276.66ZM123.497 275.431H213.659L209.227 260.288H127.929L123.497 275.431Z" fill="#8ABAE7"/>
<path d="M207.11 153.596L119.411 153.99C112.123 153.99 106.017 148.434 105.771 141.501C105.623 138.06 106.952 134.864 109.464 132.405C111.926 130.045 115.225 128.718 118.721 128.669L206.42 128.275C213.708 128.275 219.814 133.831 220.06 140.764C220.208 144.205 218.878 147.401 216.367 149.86C213.905 152.22 210.606 153.547 207.11 153.596ZM118.524 129.996C115.373 129.996 112.467 131.176 110.301 133.29C108.085 135.454 106.952 138.305 107.051 141.354C107.297 147.696 112.911 152.81 119.558 152.81L207.257 152.367C210.409 152.367 213.314 151.187 215.481 149.073C217.696 146.91 218.829 144.058 218.731 141.01C218.484 134.667 212.871 129.554 206.223 129.554L118.524 129.996Z" fill="black"/>
<path d="M204.598 192.487L116.899 192.88C109.907 192.88 104.047 187.57 103.801 180.933C103.555 174.295 109.021 168.887 116.013 168.838L203.712 168.395C210.704 168.395 216.564 173.705 216.81 180.343C217.056 186.98 211.591 192.389 204.598 192.438V192.487Z" fill="#D7E4F2"/>
<path d="M208.537 189.193L120.838 189.586C113.846 189.586 107.986 184.276 107.74 177.639C107.494 171.001 112.96 165.593 119.952 165.544L207.651 165.101C214.643 165.101 220.503 170.411 220.749 177.049C220.996 183.686 215.53 189.094 208.537 189.144V189.193Z" fill="#4666C8"/>
<path d="M124.039 141.354C123.99 139.633 122.464 138.256 120.642 138.256C118.82 138.256 117.392 139.682 117.49 141.403C117.539 143.124 119.066 144.5 120.888 144.5C122.71 144.5 124.138 143.075 124.039 141.354Z" fill="#89B9E6"/>
<path d="M210.163 140.96C210.113 139.24 208.587 137.863 206.765 137.863C204.943 137.863 203.515 139.289 203.613 141.01C203.663 142.73 205.189 144.107 207.011 144.107C208.833 144.107 210.261 142.681 210.163 140.96Z" fill="#89B9E6"/>
<path d="M192.928 141.01C192.879 139.289 191.352 137.912 189.53 137.912C187.708 137.912 186.28 139.338 186.379 141.059C186.428 142.78 187.955 144.156 189.776 144.156C191.598 144.156 193.026 142.73 192.928 141.01Z" fill="#89B9E6"/>
<path d="M175.694 141.108C175.644 139.387 174.118 138.01 172.296 138.01C170.474 138.01 169.046 139.436 169.144 141.157C169.194 142.878 170.72 144.255 172.542 144.255C174.364 144.255 175.792 142.829 175.694 141.108Z" fill="#89B9E6"/>
<path d="M158.508 141.206C158.459 139.485 156.933 138.109 155.111 138.109C153.289 138.109 151.861 139.535 151.959 141.255C152.008 142.976 153.535 144.353 155.357 144.353C157.179 144.353 158.607 142.927 158.508 141.206Z" fill="#89B9E6"/>
<path d="M141.274 141.255C141.225 139.535 139.698 138.158 137.876 138.158C136.054 138.158 134.626 139.584 134.725 141.305C134.774 143.025 136.3 144.402 138.122 144.402C139.944 144.402 141.372 142.976 141.274 141.255Z" fill="#89B9E6"/>
<path d="M204.844 177.786L125.319 178.179C124.975 178.179 124.729 177.884 124.778 177.54C124.827 177.196 125.172 176.901 125.516 176.901L205.041 176.508C205.386 176.508 205.632 176.803 205.583 177.147C205.534 177.491 205.189 177.786 204.844 177.786Z" fill="white"/>
<path d="M124.581 25.5666C124.581 25.5666 119.805 27.7299 113.452 27.6316C108.282 27.5824 101.979 26.0583 96.3656 20.6991V18.3391H94.1497C87.7976 25.8616 80.2636 27.7299 74.2562 27.6316C70.76 27.6316 67.8056 26.8941 65.9344 26.3533V25.6649L63.7185 25.5666V61.114C63.7185 83.6814 94.1497 96.1206 94.1497 96.1206H96.3656V95.1372C103.358 91.7447 124.581 79.9939 124.581 61.1632V30.9257H126.797V25.5666H124.581ZM120.937 61.2123C120.937 65.1948 119.657 69.1773 117.145 73.0123C114.979 76.3065 111.877 79.5514 107.987 82.5998C103.506 86.0906 98.9754 88.5489 96.4148 89.7781C93.7558 88.4998 89.1763 85.9923 84.5969 82.4031C80.7561 79.3548 77.7031 76.159 75.5857 72.914C73.1236 69.1281 71.8433 65.1948 71.8433 61.2615V33.2857C73.3698 33.4824 75.044 33.6299 76.8167 33.6299C84.1537 33.6299 90.8505 31.2699 96.3656 26.6974C101.93 31.2699 108.577 33.6299 115.914 33.6299C117.687 33.6299 119.361 33.4824 120.888 33.2857V61.2615L120.937 61.2123Z" fill="#8ABAE7" stroke="black" stroke-width="0.17" stroke-linecap="round" stroke-linejoin="round"/>
<path d="M113.502 27.6807C108.085 27.189 101.831 24.8782 96.4149 18.4866C89.2256 26.9924 80.5591 28.2215 74.3055 27.6807C69.3813 27.2382 65.9836 25.7141 65.9836 25.7141V61.2614C65.9836 82.5997 93.1649 94.8913 96.1194 96.1205C96.2671 96.2188 96.3656 96.2188 96.3656 96.2188C96.3656 96.2188 126.797 83.8289 126.797 61.2123V25.6649C126.797 25.6649 120.937 28.3199 113.452 27.6315L113.502 27.6807ZM84.5969 82.4031C80.7561 79.3547 77.7031 76.1589 75.5857 72.9139C73.1237 69.1281 71.8434 65.1948 71.8434 61.2614V33.2857C73.3699 33.4824 75.0441 33.6299 76.8168 33.6299C84.1537 33.6299 90.8506 31.2699 96.3656 26.6974C101.93 31.2699 108.578 33.6299 115.914 33.6299C117.687 33.6299 119.361 33.4824 120.888 33.2857V61.2614C120.888 65.2439 119.608 69.2264 117.096 73.0614C114.93 76.3556 111.827 79.6006 107.937 82.6489C103.456 86.1397 98.9262 88.598 96.3656 89.8272C93.7066 88.5489 89.1271 86.0414 84.5477 82.4522L84.5969 82.4031Z" fill="#D8E5F3" stroke="black" stroke-width="0.17" stroke-linecap="round" stroke-linejoin="round"/>
<path d="M120.937 33.2857V57.7215H96.4148V26.7466C101.979 31.3191 108.627 33.6791 115.964 33.6791C117.736 33.6791 119.411 33.5316 120.937 33.3349V33.2857Z" fill="#8ABAE7"/>
<path d="M96.4147 57.6724V89.7781C93.7557 88.4998 89.1763 85.9923 84.5968 82.4031C80.756 79.3548 77.703 76.159 75.5856 72.914C73.1235 69.1282 71.8433 65.1948 71.8433 61.2615V57.7215H96.3655L96.4147 57.6724Z" fill="#8ABAE7"/>
<path d="M96.4148 26.6974V57.6723H71.8926V33.2365C73.4191 33.4332 75.0933 33.5807 76.866 33.5807C84.2029 33.5807 90.8998 31.2207 96.4148 26.6482V26.6974Z" fill="white"/>
<path d="M120.937 57.6724V61.2124C120.937 65.1948 119.657 69.1773 117.145 73.0123C114.979 76.3065 111.877 79.5515 107.987 82.5998C103.506 86.0906 98.9754 88.5489 96.4148 89.7781V57.6724H120.937Z" fill="white"/>
<path d="M96.4148 89.9256C96.4148 89.9256 96.4148 89.9256 96.3656 89.9256C93.9528 88.7456 89.1763 86.189 84.5477 82.5506C80.6576 79.5023 77.6538 76.3065 75.4872 73.0123C73.0252 69.1773 71.7449 65.244 71.7449 61.2615V33.2858C71.7449 33.2858 71.7449 33.1874 71.7941 33.1874C71.7941 33.1874 71.8926 33.1874 71.9418 33.1874C73.5668 33.4333 75.241 33.5316 76.866 33.5316C80.5099 33.5316 84.006 32.9416 87.2559 31.7616C90.5059 30.5816 93.5588 28.8608 96.3164 26.5991C96.3656 26.55 96.4641 26.55 96.5133 26.5991C99.2708 28.8608 102.324 30.5816 105.574 31.7616C108.824 32.9416 112.369 33.5316 115.964 33.5316C117.589 33.5316 119.263 33.4333 120.888 33.1874C120.888 33.1874 120.986 33.1874 121.036 33.1874L121.085 33.2858V61.2615C121.085 65.2932 119.805 69.2757 117.293 73.1107C115.127 76.4048 112.024 79.6498 108.085 82.6981C103.456 86.2873 98.8277 88.7456 96.4641 89.9256C96.4641 89.9256 96.4641 89.9256 96.4148 89.9256ZM71.9911 33.4824V61.2615C71.9911 65.1949 73.2221 69.079 75.6842 72.8648C77.8016 76.1098 80.8545 79.3056 84.6954 82.354C89.2748 85.9431 93.9528 88.4506 96.4148 89.6798C98.7784 88.4998 103.358 86.0906 107.888 82.5506C111.778 79.5023 114.831 76.3065 116.998 73.0123C119.509 69.2265 120.74 65.2932 120.74 61.3107V33.5316C119.115 33.7283 117.539 33.8758 115.914 33.8758C112.221 33.8758 108.725 33.2858 105.377 32.1058C102.127 30.9258 99.0739 29.205 96.3164 26.9925C93.5588 29.2541 90.5059 30.975 87.2559 32.1058C83.9568 33.2858 80.4114 33.8758 76.7183 33.8758C75.1425 33.8758 73.5176 33.7774 71.8926 33.5316L71.9911 33.4824Z" fill="black"/>
<path d="M90.2597 28.3691C89.8658 28.3691 89.5211 28.1724 89.3241 27.8283C89.0287 27.2874 89.2256 26.6483 89.718 26.3533C91.1461 25.5666 92.4756 24.6325 93.7066 23.6C94.1498 23.2066 94.8392 23.2558 95.2331 23.6983C95.627 24.1408 95.5778 24.8291 95.1346 25.2225C93.8051 26.3533 92.3279 27.3858 90.8014 28.2216C90.6536 28.3199 90.4567 28.3691 90.2597 28.3691Z" fill="white"/>
<path d="M69.0367 45.1349C68.4458 45.1349 67.9534 44.6432 67.9534 44.0532V29.8441C67.9534 29.4999 68.1011 29.2049 68.3965 29.0083C68.6428 28.8116 69.0367 28.7624 69.3321 28.8116C69.4306 28.8116 77.6539 31.0733 86.2712 27.9266C86.8128 27.7299 87.453 28.0249 87.6499 28.5658C87.8469 29.1066 87.5515 29.7458 87.0098 29.9424C79.7713 32.5974 72.976 31.7124 70.12 31.1716V44.0532C70.12 44.6432 69.6276 45.1349 69.0367 45.1349Z" fill="white"/>
<path d="M69.0367 52.559C68.4458 52.559 67.9534 52.0673 67.9534 51.4773V47.6423C67.9534 47.0523 68.4458 46.5607 69.0367 46.5607C69.6276 46.5607 70.12 47.0523 70.12 47.6423V51.4773C70.12 52.0673 69.6276 52.559 69.0367 52.559Z" fill="white"/>
<path d="M105.131 57.6723C104.983 52.559 100.896 48.3307 95.9716 48.3307C91.0474 48.3307 87.1574 52.4115 87.3051 57.574C87.4528 62.6873 91.5399 66.9156 96.464 66.9156C101.388 66.9156 105.278 62.8348 105.131 57.6723Z" fill="#4666C8"/>
<path d="M96.464 69.1773C90.358 69.1773 85.2369 63.9165 85.0892 57.5248C84.9907 54.4273 86.1232 51.5265 88.1421 49.314C90.2103 47.1507 92.9678 45.9707 95.9223 45.9707C102.028 45.9707 107.149 51.2315 107.297 57.6232C107.396 60.7207 106.263 63.6215 104.244 65.834C102.176 67.9973 99.4184 69.1773 96.464 69.1773ZM95.8731 46.5115C93.0663 46.5115 90.4073 47.5932 88.4868 49.6582C86.5172 51.7232 85.4831 54.5257 85.5816 57.4757C85.7293 63.5723 90.6535 68.5873 96.5132 68.6365C99.32 68.6365 101.979 67.5548 103.899 65.4898C105.869 63.4248 106.903 60.6223 106.805 57.6723C106.657 51.5757 101.733 46.5607 95.8731 46.5115Z" fill="black"/>
<path d="M95.9715 61.9989C95.9715 61.9989 95.6761 61.9498 95.5776 61.8023L91.4413 57.4265C91.4413 57.4265 91.2443 56.7873 91.4413 56.5415C91.6875 56.2956 92.0814 56.2956 92.3276 56.5415L95.9223 60.3273L99.9601 53.444C100.157 53.149 100.502 53.0506 100.797 53.1981C101.093 53.3456 101.191 53.739 100.994 54.0831L96.5132 61.6548C96.5132 61.6548 96.2177 61.9498 96.07 61.9989C96.07 61.9989 96.0208 61.9989 95.9715 61.9989Z" fill="white"/>
<path d="M209.227 266.384C220.159 262.5 221.784 253.748 212.822 246.865C203.86 239.933 187.708 237.474 176.777 241.309C168.258 244.308 165.402 250.307 168.75 256.059L129.456 267.761V270.613L149.3 275.824L152.993 274.497L154.027 268.793L164.565 270.416L165.599 264.713L176.137 266.335L180.174 264.909C189.136 268.597 200.659 269.383 209.079 266.433L209.227 266.384Z" fill="#D8E5F3"/>
<path d="M149.349 276.218C149.349 276.218 149.251 276.218 149.202 276.218L129.357 271.006C129.357 271.006 129.013 270.76 129.013 270.613V267.761C129.013 267.761 129.16 267.417 129.357 267.368L168.11 255.863C166.682 253.208 166.535 250.503 167.618 247.996C168.997 244.997 172.099 242.538 176.58 240.965C187.708 237.032 204.106 239.539 213.166 246.57C217.697 250.11 219.765 254.191 218.928 258.075C218.14 261.812 214.742 264.909 209.375 266.827C201.053 269.777 189.629 269.187 180.224 265.401L176.383 266.778C176.383 266.778 176.186 266.778 176.088 266.778L166.042 265.253L165.057 270.514C165.057 270.514 164.959 270.711 164.86 270.809C164.762 270.858 164.614 270.908 164.467 270.858L154.421 269.334L153.436 274.595C153.436 274.595 153.289 274.89 153.141 274.939L149.448 276.267C149.448 276.267 149.3 276.267 149.251 276.267L149.349 276.218ZM130.047 270.268L149.349 275.333L152.599 274.202L153.633 268.695C153.633 268.695 153.732 268.498 153.83 268.4C153.929 268.351 154.077 268.302 154.224 268.351L164.27 269.875L165.254 264.614C165.254 264.614 165.353 264.418 165.451 264.319C165.55 264.27 165.698 264.221 165.845 264.27L176.235 265.843L180.125 264.467C180.125 264.467 180.421 264.467 180.568 264.467C189.58 268.203 201.053 268.793 209.03 265.942C214.053 264.172 217.204 261.271 217.943 257.829C218.681 254.24 216.761 250.405 212.477 247.111C203.663 240.326 187.758 237.868 176.974 241.653C172.739 243.178 169.834 245.439 168.554 248.193C167.47 250.602 167.716 253.208 169.243 255.813C169.292 255.912 169.292 256.059 169.243 256.158C169.194 256.256 169.095 256.354 168.948 256.403L129.998 267.958V270.17L130.047 270.268Z" fill="black"/>
<path d="M209.227 263.533C220.159 259.648 221.784 250.897 212.822 244.014C203.86 237.081 187.708 234.623 176.777 238.458C168.258 241.457 165.402 247.455 168.75 253.208L129.456 267.712L149.3 272.923L152.993 271.596L154.027 265.893L164.565 267.515L165.599 261.812L176.137 263.434L180.174 262.008C189.136 265.696 200.659 266.483 209.079 263.533H209.227Z" fill="white"/>
<path d="M149.349 273.366C149.349 273.366 149.251 273.366 149.202 273.366L129.357 268.154C129.357 268.154 129.013 267.958 129.013 267.761C129.013 267.564 129.111 267.417 129.308 267.368L168.11 253.011C166.682 250.356 166.485 247.603 167.618 245.144C168.997 242.145 172.099 239.687 176.58 238.113C187.708 234.18 204.106 236.737 213.166 243.718C217.697 247.258 219.765 251.339 218.928 255.223C218.14 258.96 214.742 262.058 209.375 263.975C201.053 266.925 189.629 266.335 180.224 262.549L176.383 263.926C176.383 263.926 176.186 263.926 176.088 263.926L166.042 262.402L165.057 267.663C165.057 267.663 164.959 267.859 164.86 267.958C164.762 268.007 164.614 268.056 164.467 268.007L154.421 266.483L153.436 271.743C153.436 271.743 153.289 272.038 153.141 272.088L149.448 273.366C149.448 273.366 149.3 273.366 149.251 273.366H149.349ZM130.982 267.663L149.349 272.481L152.599 271.35L153.633 265.843C153.633 265.843 153.732 265.647 153.83 265.548C153.929 265.499 154.077 265.45 154.224 265.499L164.27 267.023L165.254 261.763C165.254 261.763 165.353 261.566 165.451 261.468C165.55 261.418 165.698 261.369 165.845 261.418L176.235 262.992L180.125 261.615C180.125 261.615 180.421 261.615 180.568 261.615C189.58 265.352 201.053 265.942 209.03 263.09C214.053 261.32 217.204 258.419 217.943 254.978C218.681 251.388 216.761 247.553 212.477 244.259C203.663 237.474 187.758 235.016 176.974 238.802C172.739 240.326 169.834 242.588 168.554 245.341C167.47 247.75 167.716 250.356 169.243 252.962C169.292 253.06 169.292 253.208 169.243 253.306C169.243 253.404 169.095 253.503 168.948 253.552L130.933 267.613L130.982 267.663Z" fill="black"/>
<path d="M186.28 254.043L183.178 251.634L199.428 245.882L202.53 248.291L186.28 254.043Z" fill="#D8E5F3"/>
<path d="M183.178 252.077C183.178 252.077 182.784 251.978 182.686 251.831C182.587 251.634 182.686 251.339 182.981 251.29L199.182 245.587C199.182 245.587 199.576 245.587 199.723 245.685L202.826 248.094C202.826 248.094 203.023 248.537 202.826 248.684C202.629 248.881 202.284 248.881 202.087 248.684L199.231 246.472L183.326 252.077C183.326 252.077 183.178 252.077 183.129 252.077H183.178Z" fill="black"/>
<path d="M94.1987 191.159H72.9264L72.8772 171.886H94.1003L94.1987 191.159Z" fill="#F57A3E"/>
<path d="M97.2517 191.553H76.0286C76.0286 191.553 75.6839 191.356 75.6839 191.159L75.5854 171.886C75.5854 171.886 75.5854 171.689 75.7332 171.591C75.8317 171.493 75.9301 171.444 76.0286 171.444H97.2517C97.2517 171.444 97.5964 171.64 97.5964 171.837L97.6949 191.11C97.6949 191.11 97.6949 191.307 97.5471 191.405C97.4486 191.504 97.3502 191.553 97.2517 191.553ZM76.4226 190.766H96.907L96.8085 172.279H76.3241L76.4226 190.766Z" fill="black"/>
<path d="M86.6156 187.275C85.4338 187.275 84.449 186.292 84.449 185.112V177.983C84.449 177.393 84.6459 176.803 85.0399 176.409C85.4338 175.967 86.0247 175.77 86.6156 175.77C87.7974 175.77 88.7822 176.754 88.7822 177.934V185.063C88.7822 185.653 88.5853 186.243 88.1913 186.636C87.7974 187.079 87.2065 187.275 86.6156 187.275ZM86.5664 176.557C86.2217 176.557 85.877 176.704 85.5815 176.95C85.3353 177.196 85.1876 177.54 85.1876 177.934V185.063C85.1876 185.849 85.877 186.538 86.6648 186.538C87.0095 186.538 87.3542 186.39 87.6497 186.144C87.8959 185.899 88.0436 185.554 88.0436 185.161V178.032C88.0436 177.245 87.3542 176.557 86.5664 176.557Z" fill="black"/>
<path d="M94.0511 172.279H79.1801C79.1801 172.279 78.8354 172.132 78.8354 171.886V167.559C78.8354 165.396 79.6233 163.429 81.1006 161.905C82.5778 160.381 84.5475 159.594 86.6648 159.594C90.9488 159.594 94.4942 163.184 94.4942 167.51V171.837C94.4942 171.837 94.4942 172.034 94.3957 172.132C94.2973 172.23 94.1988 172.279 94.1003 172.279H94.0511ZM79.6233 171.493H93.7556V167.609C93.7556 163.626 90.5549 160.381 86.6156 160.381C84.7444 160.381 82.9717 161.119 81.6422 162.446C80.3127 163.774 79.5741 165.593 79.6233 167.51V171.444V171.493Z" fill="black"/>
<path d="M193.519 207.876H135.709L134.971 199.616H192.78L193.519 207.876Z" fill="#4666C8"/>
<path d="M188.004 213.334H142.111C142.111 213.334 141.717 213.137 141.717 212.94C141.717 212.744 141.914 212.547 142.111 212.547H188.004C188.004 212.547 188.398 212.744 188.398 212.94C188.398 213.137 188.201 213.334 188.004 213.334Z" fill="black"/>
<path d="M94.7405 139.928H72.4341L72.4833 126.997H94.7897L94.7405 139.928Z" fill="#F57A3E"/>
<path d="M94.1496 130.734H72.7296C72.7296 130.734 72.3356 130.537 72.3849 130.34C72.4341 130.144 72.5818 129.947 72.828 129.947H94.2481C94.2481 129.947 94.642 130.144 94.5928 130.34C94.5435 130.537 94.3958 130.734 94.1496 130.734Z" fill="black"/>
<path d="M243.696 85.1072H211.393C211.393 85.1072 211 84.9106 211 84.7139C211 84.5172 211.196 84.3206 211.393 84.3206H243.696C243.696 84.3206 244.09 84.5172 244.09 84.7139C244.09 84.9106 243.893 85.1072 243.696 85.1072Z" fill="black"/>
<path d="M243.696 89.5323H222.522C222.522 89.5323 222.128 89.3356 222.128 89.1389C222.128 88.9423 222.325 88.7456 222.522 88.7456H243.696C243.696 88.7456 244.09 88.9423 244.09 89.1389C244.09 89.3356 243.893 89.5323 243.696 89.5323Z" fill="black"/>
<path d="M251.624 96.1698C249.211 94.0064 245.468 94.2031 243.302 96.6123C241.135 99.0214 241.332 102.758 243.745 104.921L244.385 105.511L230.45 121.048L237.147 127.046L244.09 119.278L250.786 125.276L247.093 129.357L253.79 135.356L264.426 123.506L323.27 176.164L331.148 167.412L251.574 96.1698H251.624Z" fill="#F57A3E"/>
<path d="M323.024 176.803C323.024 176.803 322.925 176.754 322.876 176.705L264.525 124.49L254.332 135.847C254.332 135.847 254.036 136.044 253.889 136.093C253.692 136.093 253.544 136.044 253.396 135.945L246.699 129.947C246.699 129.947 246.503 129.652 246.453 129.505C246.453 129.308 246.503 129.161 246.601 129.013L249.802 125.424L244.09 120.311L237.59 127.587C237.59 127.587 237.294 127.784 237.147 127.833C236.95 127.833 236.802 127.784 236.654 127.686L229.957 121.687C229.662 121.441 229.662 120.999 229.908 120.753L243.4 105.757L243.253 105.61C240.544 103.201 240.347 99.0214 242.76 96.3173C245.173 93.6131 249.359 93.4164 252.067 95.8256L331.641 167.068C331.641 167.068 331.838 167.363 331.887 167.51C331.936 167.658 331.838 167.855 331.74 168.002L323.861 176.754C323.861 176.754 323.319 177.049 323.024 176.901V176.803ZM264.82 122.916C264.82 122.916 264.919 122.966 264.968 123.015L323.319 175.23L330.312 167.461L251.23 96.6614C249.063 94.7439 245.764 94.9406 243.844 97.0548C241.923 99.2181 242.12 102.512 244.237 104.43L244.878 105.02C244.878 105.02 245.075 105.315 245.124 105.462C245.173 105.61 245.075 105.806 244.976 105.954L231.484 120.95L237.196 126.063L243.696 118.786C243.696 118.786 243.991 118.59 244.139 118.541C244.336 118.541 244.484 118.59 244.631 118.688L251.328 124.686C251.328 124.686 251.525 124.981 251.574 125.129C251.624 125.276 251.525 125.473 251.427 125.621L248.226 129.21L253.938 134.323L264.131 122.966C264.131 122.966 264.673 122.671 264.968 122.818L264.82 122.916Z" fill="black"/>
<path d="M264.18 124.146C264.18 124.146 264.082 124.096 264.032 124.047L249.309 110.871C249.014 110.625 249.014 110.182 249.26 109.936C249.506 109.641 249.949 109.641 250.196 109.887L264.919 123.064C265.214 123.31 265.214 123.752 264.968 123.998C264.771 124.244 264.426 124.293 264.131 124.146H264.18Z" fill="black"/>
<path d="M295.35 140.469C295.35 140.469 295.202 140.37 295.104 140.321L258.468 107.527C258.025 107.134 257.976 106.396 258.37 105.954C258.764 105.511 259.502 105.462 259.945 105.856L296.581 138.65C297.024 139.043 297.073 139.78 296.679 140.223C296.335 140.616 295.744 140.715 295.301 140.469H295.35Z" fill="white"/>
<path d="M254.529 103.889C254.529 103.889 254.381 103.791 254.283 103.741L248.571 98.6281C248.128 98.2347 248.078 97.4972 248.472 97.0547C248.866 96.6122 249.605 96.5631 250.048 96.9564L255.76 102.07C256.203 102.463 256.252 103.201 255.858 103.643C255.514 104.036 254.923 104.135 254.48 103.889H254.529Z" fill="white"/>
<path d="M347.644 158.562C335.334 152.22 320.217 156.989 313.865 169.28C307.513 181.572 312.289 196.666 324.599 203.009C336.91 209.351 352.027 204.582 358.379 192.29C364.731 179.999 359.955 164.905 347.644 158.562ZM330.164 192.241C323.811 188.947 321.349 181.179 324.649 174.885C327.948 168.543 335.728 166.085 342.031 169.379C348.334 172.673 350.845 180.441 347.546 186.735C344.247 193.077 336.467 195.535 330.164 192.241Z" fill="#F57A3E"/>
<path d="M324.255 203.599C311.649 197.06 306.725 181.523 313.225 168.936C319.774 156.35 335.334 151.433 347.94 157.923C360.546 164.462 365.47 179.999 358.97 192.585C352.421 205.172 336.861 210.089 324.255 203.599ZM347.3 159.152C335.383 152.957 320.611 157.628 314.406 169.575C308.202 181.523 312.88 196.224 324.846 202.419C336.762 208.614 351.534 203.943 357.739 191.995C363.943 180.048 359.265 165.347 347.3 159.152ZM329.868 192.831C323.221 189.39 320.611 181.179 324.058 174.541C327.505 167.904 335.728 165.298 342.376 168.74C349.023 172.181 351.633 180.392 348.186 187.03C344.739 193.667 336.516 196.273 329.868 192.831ZM341.735 169.92C335.728 166.822 328.342 169.182 325.24 175.131C322.137 181.13 324.501 188.505 330.459 191.602C336.467 194.7 343.853 192.34 346.955 186.39C350.057 180.392 347.694 173.017 341.735 169.92Z" fill="black"/>
<path d="M328.588 164.167C328.588 164.167 328.145 163.823 328.046 163.577C327.8 162.987 328.096 162.348 328.686 162.102C334.103 159.939 340.16 160.234 345.33 162.938C348.235 164.462 350.747 166.675 352.618 169.33C352.962 169.821 352.864 170.559 352.322 170.903C351.83 171.247 351.091 171.149 350.747 170.608C349.122 168.248 346.857 166.281 344.296 164.905C339.717 162.545 334.3 162.25 329.524 164.167C329.228 164.315 328.883 164.265 328.588 164.167Z" fill="white"/>
<path d="M240.151 129.16C240.151 129.16 244.976 138.551 251.131 140.37L258.912 131.422L255.268 123.506L252.116 126.309L245.469 120.114L240.2 129.16H240.151Z" fill="white"/>
<path d="M258.961 132.061C258.715 132.061 258.419 131.963 258.321 131.717L254.677 123.801C254.529 123.506 254.677 123.113 254.972 123.015C255.268 122.867 255.662 123.015 255.76 123.31L259.404 131.225C259.552 131.52 259.404 131.914 259.109 132.012C259.059 132.012 259.01 132.012 258.961 132.061Z" fill="black"/>
<path d="M254.184 128.521C254.184 128.521 253.84 128.521 253.692 128.374L245.025 120.556C244.779 120.31 244.779 119.966 245.025 119.671C245.272 119.425 245.616 119.425 245.912 119.671L254.578 127.489C254.825 127.735 254.825 128.079 254.578 128.374C254.48 128.472 254.332 128.57 254.234 128.57L254.184 128.521Z" fill="black"/>
<path d="M249.901 130.635C249.901 130.635 249.507 130.635 249.359 130.439L242.613 122.769C242.367 122.523 242.416 122.13 242.662 121.884C242.908 121.638 243.302 121.687 243.548 121.933L250.294 129.603C250.541 129.849 250.491 130.242 250.245 130.488C250.147 130.586 250.048 130.635 249.95 130.635H249.901Z" fill="black"/>
<path d="M247.143 133.34C247.143 133.34 246.7 133.34 246.601 133.094L240.84 125.915C240.643 125.67 240.692 125.276 240.939 125.08C241.185 124.883 241.579 124.932 241.776 125.178L247.537 132.356C247.734 132.602 247.685 132.995 247.438 133.192C247.34 133.241 247.241 133.29 247.143 133.34Z" fill="black"/>
<path d="M251.181 141.01C251.181 141.01 250.984 141.01 250.885 141.01C242.957 137.814 239.707 129.8 239.56 129.455C239.412 129.16 239.56 128.767 239.904 128.669C240.2 128.521 240.594 128.669 240.692 129.013C240.692 129.111 243.893 136.88 251.328 139.879C251.624 140.026 251.772 140.37 251.673 140.665C251.575 140.862 251.378 141.01 251.181 141.059V141.01Z" fill="black"/>
<path d="M311.846 263.434C312.141 267.171 300.373 271.104 300.176 274.693L324.452 271.104L322.088 259.993L311.846 263.434Z" fill="white"/>
<path d="M324.55 271.743L300.274 275.333C300.274 275.333 299.93 275.333 299.782 275.185C299.634 275.038 299.585 274.89 299.585 274.693C299.683 272.678 302.539 270.809 305.592 268.843C308.301 267.073 311.403 265.106 311.255 263.483C311.255 263.188 311.403 262.943 311.649 262.844L321.891 259.403C321.891 259.403 322.236 259.403 322.384 259.403C322.531 259.501 322.63 259.648 322.679 259.796L325.043 270.908C325.043 270.908 325.043 271.252 324.944 271.399C324.846 271.547 324.698 271.645 324.55 271.645V271.743ZM301.062 273.956L323.713 270.613L321.596 260.779L312.437 263.877C312.191 265.991 309.286 267.859 306.233 269.826C304.164 271.153 301.85 272.628 301.062 273.907V273.956Z" fill="black"/>
<path d="M254.332 267.663L253.397 272.628L226.166 276.66C229.465 271.203 237.689 271.694 243.45 263.877L254.332 267.712V267.663Z" fill="white"/>
<path d="M253.495 273.218L226.264 277.25C226.264 277.25 225.821 277.201 225.674 277.004C225.526 276.808 225.526 276.562 225.674 276.365C227.299 273.661 230.056 272.333 233.011 270.957C236.31 269.383 240.003 267.613 243.007 263.533C243.154 263.336 243.45 263.238 243.696 263.336L254.578 267.171C254.874 267.269 255.021 267.564 254.972 267.859L254.037 272.825C254.037 273.071 253.79 273.268 253.544 273.317L253.495 273.218ZM227.545 275.775L252.904 272.038L253.643 268.007L243.696 264.516C240.594 268.548 236.851 270.367 233.552 271.94C231.189 273.071 229.071 274.103 227.594 275.775H227.545Z" fill="black"/>
<path d="M348.285 107.085C352.52 110.231 352.126 118 347.349 124.44C342.573 130.881 335.236 133.487 331.001 130.34C326.766 127.194 327.16 119.425 331.937 112.985C336.713 106.544 344.05 103.938 348.285 107.085Z" fill="white"/>
<path d="M336.713 132.16C334.448 132.504 332.281 132.11 330.607 130.832C326.077 127.489 326.471 119.327 331.444 112.64C333.808 109.445 336.91 107.035 340.111 105.905C343.41 104.725 346.463 104.97 348.679 106.642C353.209 109.985 352.815 118.147 347.842 124.834C344.739 129.013 340.554 131.619 336.762 132.209L336.713 132.16ZM342.671 106.445C341.982 106.544 341.243 106.74 340.455 106.986C337.501 108.068 334.596 110.33 332.38 113.329C327.8 119.475 327.308 126.85 331.296 129.8C335.285 132.75 342.228 130.144 346.807 123.998C351.387 117.852 351.879 110.477 347.891 107.527C346.512 106.495 344.69 106.101 342.671 106.396V106.445Z" fill="black"/>
<path d="M352.864 117.803C351.978 124.342 346.611 129.013 340.8 128.275C334.99 127.489 331.001 121.589 331.887 115.05C332.774 108.511 338.141 103.84 343.952 104.577C349.762 105.364 353.751 111.264 352.864 117.803Z" fill="black"/>
<path d="M342.031 134.913C342.523 138.404 337.501 142.042 330.804 143.025C324.058 144.009 318.198 141.993 317.706 138.502C317.213 135.011 322.236 131.373 328.933 130.39C335.679 129.406 341.539 131.422 342.031 134.913Z" fill="white"/>
<path d="M330.853 143.665C323.713 144.697 317.607 142.534 317.066 138.65C316.524 134.765 321.645 130.93 328.834 129.849C335.974 128.816 342.08 130.98 342.622 134.864C343.213 138.748 338.043 142.583 330.853 143.665ZM328.982 131.029C322.728 131.963 317.804 135.355 318.247 138.453C318.691 141.55 324.403 143.37 330.656 142.435C336.91 141.501 341.834 138.109 341.391 135.011C340.948 131.914 335.236 130.095 328.982 131.029Z" fill="black"/>
<path d="M356.065 203.402C355.523 199.764 352.126 197.256 348.531 197.797C344.887 198.338 342.376 201.73 342.917 205.319C343.459 208.958 346.857 211.465 350.451 210.924C354.095 210.384 356.607 206.991 356.065 203.402Z" fill="white"/>
<path d="M350.55 211.564C346.611 212.154 342.868 209.4 342.327 205.467C341.736 201.534 344.493 197.797 348.433 197.256C352.372 196.666 356.114 199.419 356.656 203.353C357.247 207.286 354.489 211.023 350.55 211.564ZM348.63 198.387C345.33 198.879 343.065 201.927 343.558 205.221C344.05 208.515 347.103 210.777 350.402 210.285C353.701 209.794 355.966 206.745 355.474 203.451C354.982 200.157 351.929 197.895 348.63 198.387Z" fill="black"/>
<path d="M256.006 268.253L293.676 202.959C293.676 202.959 291.509 221.151 290.82 225.33C290.131 229.509 308.891 264.467 308.891 264.467L323.664 259.501L309.827 219.774L320.611 184.571L288.259 172.771C288.259 172.771 261.866 207.434 239.855 262.598L256.006 268.302V268.253Z" fill="black"/>
<path d="M309.039 265.057C308.793 265.057 308.547 264.958 308.399 264.762C306.479 261.173 289.589 229.509 290.278 225.281C290.771 222.184 292.1 211.219 292.74 205.909L256.548 268.646C256.4 268.892 256.105 268.99 255.809 268.892L239.658 263.188C239.658 263.188 239.363 262.992 239.313 262.844C239.264 262.697 239.264 262.5 239.313 262.353C261.127 207.778 287.57 172.722 287.816 172.378C287.964 172.181 288.259 172.083 288.506 172.181L320.857 183.981C321.153 184.079 321.35 184.424 321.251 184.719L310.566 219.725L324.353 259.255C324.353 259.255 324.353 259.599 324.353 259.747C324.353 259.894 324.156 259.993 324.009 260.042L309.236 265.008C309.236 265.008 309.187 265.008 309.138 265.008L309.039 265.057ZM293.577 202.32C293.577 202.32 293.774 202.32 293.873 202.32C294.168 202.419 294.316 202.664 294.267 202.959C294.267 203.156 292.1 221.2 291.411 225.379C290.968 228.28 301.702 249.668 309.187 263.68L322.925 259.058L309.285 219.922C309.285 219.922 309.285 219.676 309.285 219.529L319.872 184.915L288.456 173.459C285.6 177.294 261.177 211.072 240.643 262.205L255.711 267.515L293.134 202.664C293.134 202.664 293.38 202.369 293.577 202.369V202.32Z" fill="black"/>
<path d="M284.813 174.541C284.813 174.541 300.422 188.062 324.747 186.439L335.827 167.412L341.539 177.737L342.573 202.32L356.804 200.206C356.804 200.206 357.394 175.672 357.197 169.92C357.001 164.118 344.887 141.157 343.656 139.731C342.425 138.305 315.539 131.275 310.714 131.324C305.888 131.373 277.771 142.632 277.771 142.632L260.093 130.39L249.703 141.01C249.703 141.01 267.972 159.595 271.616 160.037C275.26 160.48 294.612 154.825 294.612 154.825L284.813 174.492V174.541Z" fill="#4666C9"/>
<path d="M337.008 120.458C335.482 122.867 332.724 123.9 330.853 122.769C328.982 121.589 328.736 118.688 330.262 116.23C331.789 113.82 334.546 112.788 336.418 113.919C338.289 115.099 338.535 118 337.008 120.458Z" fill="white"/>
<path d="M333.217 123.801C332.232 123.949 331.296 123.801 330.509 123.26C330.213 123.064 330.115 122.72 330.312 122.425C330.509 122.13 330.853 122.031 331.149 122.228C331.887 122.67 332.823 122.72 333.808 122.375C334.842 121.982 335.777 121.195 336.467 120.114C337.156 119.032 337.452 117.852 337.353 116.77C337.255 115.738 336.811 114.902 336.073 114.46C335.334 114.017 334.399 113.968 333.414 114.312C332.38 114.705 331.444 115.492 330.755 116.574C330.558 116.869 330.213 116.967 329.918 116.77C329.622 116.574 329.524 116.23 329.721 115.935C330.508 114.656 331.69 113.673 332.971 113.181C334.3 112.69 335.63 112.788 336.713 113.427C337.796 114.115 338.436 115.246 338.584 116.672C338.732 118.049 338.338 119.475 337.501 120.802C336.713 122.08 335.531 123.064 334.251 123.555C333.906 123.703 333.561 123.752 333.217 123.801Z" fill="black"/>
<path d="M273.192 67.9482C273.093 69.8165 274.57 71.2915 276.589 71.2915C278.559 71.2915 280.282 69.7673 280.43 67.899C280.529 66.0307 279.051 64.5557 277.032 64.5557C275.014 64.5557 273.339 66.0798 273.192 67.9482Z" fill="#F47A3E"/>
<path d="M261.177 68.0465C261.078 69.9149 262.556 71.3899 264.574 71.3899C266.544 71.3899 268.268 69.8657 268.415 67.9974C268.514 66.1291 267.036 64.6541 265.018 64.6541C262.999 64.6541 261.324 66.1782 261.177 68.0465Z" fill="#D7E4F2"/>
<path d="M249.113 68.1448C249.014 70.0131 250.491 71.4881 252.51 71.4881C254.529 71.4881 256.203 69.964 256.351 68.0956C256.45 66.2273 254.972 64.7523 252.953 64.7523C250.934 64.7523 249.26 66.2765 249.113 68.1448Z" fill="#4666C8"/>
<path d="M215.382 68.8332L241.332 68.5874C241.332 68.5874 241.677 68.4399 241.628 68.2432C241.628 68.0465 241.431 67.899 241.234 67.899L215.284 68.1449C215.284 68.1449 214.939 68.2924 214.988 68.489C214.988 68.6857 215.185 68.8332 215.382 68.8332Z" fill="black"/>
<path d="M182.883 100.349C182.883 91.2531 174.61 83.6815 164.516 83.4357C154.372 83.1898 146.198 90.4173 146.198 99.5131C146.198 108.609 154.471 116.181 164.565 116.426C174.709 116.672 182.883 109.445 182.883 100.349Z" fill="#D7E4F2"/>
<path d="M164.565 119.819C168.701 119.917 172.591 118.983 175.94 117.262L174.512 110.477C173.872 107.478 170.966 105.266 167.618 105.167L161.512 105.02C158.114 104.921 155.258 107.036 154.618 110.035L153.24 116.771C156.588 118.639 160.478 119.77 164.614 119.868L164.565 119.819Z" fill="#4666C9"/>
<path d="M169.736 105.561C169.736 105.561 167.421 108.265 164.516 108.216C161.66 108.166 159.296 105.315 159.296 105.315C159.296 105.315 161.611 102.611 164.516 102.66C167.372 102.709 169.736 105.561 169.736 105.561Z" fill="white"/>
<path d="M167.027 105.511L164.516 108.265L162.054 105.413L162.005 99.7097L167.027 99.808V105.511Z" fill="white"/>
<path d="M164.516 108.51C164.516 108.51 164.368 108.51 164.319 108.412L161.857 105.56C161.857 105.56 161.808 105.462 161.808 105.413V99.7097C161.808 99.7097 161.808 99.5622 161.906 99.513C161.955 99.4638 162.054 99.4147 162.103 99.4147L167.076 99.513C167.076 99.513 167.323 99.6113 167.323 99.7588V105.462C167.323 105.462 167.323 105.56 167.273 105.61L164.762 108.314C164.762 108.314 164.614 108.412 164.516 108.412V108.51ZM162.349 105.315L164.565 107.822L166.781 105.413V100.005L162.349 99.9063V105.265V105.315Z" fill="black"/>
<path d="M171.065 95.5306C171.065 99.7589 168.16 103.151 164.516 103.053C160.872 102.955 157.917 99.4639 157.917 95.2356C157.917 91.0073 160.823 87.6148 164.467 87.7131C168.11 87.8115 171.065 91.3023 171.065 95.5306Z" fill="white"/>
<path d="M164.516 103.299C160.774 103.201 157.671 99.6114 157.671 95.2356C157.671 92.7773 158.656 90.4664 160.33 88.9914C161.561 87.9098 162.989 87.3689 164.516 87.4181C168.258 87.5164 171.361 91.1056 171.361 95.4814C171.361 97.9397 170.425 100.251 168.701 101.726C167.47 102.807 166.042 103.348 164.516 103.299ZM164.467 87.9589C163.088 87.9589 161.808 88.4014 160.675 89.3848C159.099 90.7614 158.213 92.8756 158.213 95.2356C158.213 99.3164 161.069 102.758 164.516 102.807C165.895 102.807 167.175 102.365 168.308 101.381C169.883 100.005 170.77 97.8906 170.77 95.5306C170.77 91.4498 167.914 88.0081 164.467 87.9589Z" fill="black"/>
<path d="M173.576 118.59C173.576 118.59 173.33 118.491 173.33 118.393L171.557 110.969C171.557 110.969 171.607 110.674 171.754 110.674C171.902 110.674 172.05 110.674 172.099 110.87L173.872 118.295C173.872 118.295 173.822 118.59 173.626 118.59C173.626 118.59 173.576 118.59 173.527 118.59H173.576Z" fill="black"/>
<path d="M156.539 118.196C156.391 118.196 156.292 118.049 156.292 117.901L157.327 110.526C157.327 110.526 157.474 110.281 157.622 110.281C157.77 110.281 157.868 110.428 157.868 110.576L156.834 117.95C156.834 117.95 156.686 118.196 156.539 118.196Z" fill="black"/>
<path d="M164.565 120.114C152.205 119.819 142.111 110.576 142.062 99.4639C142.062 94.0556 144.376 89.0406 148.66 85.3039C152.895 81.6165 158.508 79.6498 164.516 79.7973C176.875 80.0923 186.97 89.3356 187.019 100.447C187.019 105.856 184.705 110.871 180.421 114.607C176.186 118.295 170.573 120.261 164.565 120.114ZM164.417 80.2398C158.607 80.0923 153.141 82.0098 149.005 85.5989C144.869 89.2373 142.603 94.1047 142.603 99.3656C142.603 110.231 152.501 119.278 164.565 119.573C170.376 119.721 175.841 117.803 179.978 114.214C184.114 110.576 186.379 105.708 186.379 100.447C186.379 89.5814 176.482 80.5348 164.417 80.2398Z" fill="black"/>
<path d="M116.801 98.8247C116.801 94.0064 121.134 90.2206 126.501 90.3189C131.869 90.4172 136.202 94.4489 136.251 99.2672C136.251 104.086 131.918 107.871 126.551 107.773C121.183 107.675 116.85 103.643 116.801 98.8247Z" fill="#D7E4F2"/>
<path d="M212.231 101.037C212.231 96.2189 207.848 92.1873 202.481 92.089C197.114 91.9415 192.78 95.7764 192.78 100.595C192.78 105.413 197.163 109.445 202.53 109.543C207.897 109.641 212.231 105.856 212.231 101.037Z" fill="#D7E4F2"/>
</g>
<defs>
<clipPath id="clip0_65_679">
<rect width="383" height="292" fill="white"/>
</clipPath>
</defs>
</svg>
