<svg width="25" height="25" viewBox="0 0 25 25" fill="none" xmlns="http://www.w3.org/2000/svg">
<path d="M21.2791 8.554C21.4181 6.901 21.9166 5.3835 22.7941 3.992L19.4271 0.75C18.3636 1.6315 17.1516 2.12 15.7796 2.206C14.5216 2.3155 13.3296 2.0855 12.2076 1.5145C11.0546 2.0665 9.86708 2.298 8.62958 2.206C7.37002 2.10541 6.16549 1.64671 5.15808 0.884L1.78258 4.125C2.61308 5.536 3.07558 7.0125 3.16608 8.554C3.20908 9.2635 2.99908 10.2415 2.52658 11.504C2.31212 12.1002 2.12477 12.7058 1.96508 13.319C1.84708 13.8235 1.77358 14.2325 1.74858 14.54C1.73158 15.8855 2.12358 17.1005 2.92758 18.181C3.55608 18.9695 4.59258 19.8405 6.03158 20.793C7.60558 21.5645 8.82408 22.065 9.67758 22.2785L10.3856 22.596C10.6081 22.698 10.8466 22.7985 11.0951 22.9075C11.6326 23.2175 12.0091 23.553 12.2076 23.8995C12.4516 23.524 12.8371 23.1975 13.3491 22.9075C13.656 22.7807 13.9604 22.6479 14.2621 22.509L14.7966 22.279C14.9791 22.1925 15.2176 22.0925 15.5076 21.982C15.8664 21.8452 16.2271 21.7134 16.5896 21.5865C17.4211 21.3035 18.0266 21.035 18.4111 20.793C19.8071 19.841 20.8276 18.9835 21.4771 18.218C22.3096 17.134 22.7146 15.913 22.6961 14.541C22.6466 13.926 22.3761 12.943 21.8851 11.6035C21.4181 10.298 21.2116 9.285 21.2791 8.554Z" fill="black"/>
</svg>
