<svg width="13" height="15" viewBox="0 0 13 15" fill="none" xmlns="http://www.w3.org/2000/svg">
<path d="M2.52778 4.125C2.52778 3.03098 2.94628 1.98177 3.69121 1.20818C4.43615 0.434597 5.4465 0 6.5 0C7.5535 0 8.56385 0.434597 9.30879 1.20818C10.0537 1.98177 10.4722 3.03098 10.4722 4.125C10.4722 5.21902 10.0537 6.26823 9.30879 7.04182C8.56385 7.8154 7.5535 8.25 6.5 8.25C5.4465 8.25 4.43615 7.8154 3.69121 7.04182C2.94628 6.26823 2.52778 5.21902 2.52778 4.125ZM0 12.75C0 11.7554 0.380455 10.8016 1.05767 10.0983C1.73488 9.39509 2.65338 9 3.61111 9H9.38889C10.3466 9 11.2651 9.39509 11.9423 10.0983C12.6195 10.8016 13 11.7554 13 12.75V15H0V12.75Z" fill="white"/>
</svg>
